<svg xmlns="http://www.w3.org/2000/svg" width="110" viewBox="0 0 64 64"><defs><style>.cls-1{fill:#dfe1ea}.cls-2{fill:#adb2c7}.cls-5{fill:#fff}</style></defs><g id="_93-Css_Code" data-name="93-Css Code"><path class="cls-1" d="M63 11v50a2.006 2.006 0 0 1-2 2H3a2.006 2.006 0 0 1-2-2V11z"/><path class="cls-2" d="M61 1a2.006 2.006 0 0 1 2 2v8H1V3a2.006 2.006 0 0 1 2-2z"/><path d="M39.6 21c-7.6 0-7.6-2-15.2-2s-7.6 2-15.2 2A26.743 26.743 0 0 1 1 19.844v8A26.743 26.743 0 0 0 9.2 29c7.6 0 7.6-2 15.2-2s7.6 2 15.2 2 7.6-2 15.2-2a26.787 26.787 0 0 1 8.2 1.157v-8A26.787 26.787 0 0 0 54.8 19c-7.6 0-7.6 2-15.2 2z" style="fill:#cdd2e1"/><path d="M1 11v8.844A26.743 26.743 0 0 0 9.2 21c7.6 0 7.6-2 15.2-2s7.6 2 15.2 2 7.6-2 15.2-2a26.787 26.787 0 0 1 8.2 1.157V11z" style="fill:#f6fafd"/><rect class="cls-2" x="8" y="23" width="22" height="23" rx="1.576" ry="1.576"/><path class="cls-5" d="M7 29h20v14H7z"/><path style="fill:#8dd5f6" d="M7 21h20v8H7z"/><path class="cls-1" d="M10 32h14v8H10z"/><path class="cls-5" d="M5 5h2v2H5zM14 5h45v2H14zM10 24h2v2h-2zM14 24h2v2h-2z"/><path d="M61 0H3a3 3 0 0 0-3 3v58a3 3 0 0 0 3 3h58a3 3 0 0 0 3-3V3a3 3 0 0 0-3-3zM3 2h58a1 1 0 0 1 1 1v7H2V3a1 1 0 0 1 1-1zm58 60H3a1 1 0 0 1-1-1V12h60v49a1 1 0 0 1-1 1z"/><path d="M9 5h2v2H9zM8 30h18v1h2V21a1 1 0 0 0-1-1H7a1 1 0 0 0-1 1v22a1 1 0 0 0 1 1h13v-2H8zm18-8v6H8v-6z"/><path d="m14.293 32.293-3 3a1 1 0 0 0 0 1.414l3 3 1.414-1.414L13.414 36l2.293-2.293zM19.707 32.293l-1.414 1.414L20.586 36l-2.293 2.293 1.414 1.414 3-3a1 1 0 0 0 0-1.414zM31 29h11v2H31zM31 25h6v2h-6zM53 35a3 3 0 0 1 3 3h2a5 5 0 1 0-5 5 3 3 0 1 1-3 3h-2a5 5 0 1 0 5-5 3 3 0 0 1 0-6zM41 35a3 3 0 0 1 3 3h2a5 5 0 1 0-5 5 3 3 0 1 1-3 3h-2a5 5 0 1 0 5-5 3 3 0 0 1 0-6zM29 35a3 3 0 0 1 3 3h2a5 5 0 0 0-10 0v8a5 5 0 0 0 10 0h-2a3 3 0 0 1-6 0v-8a3 3 0 0 1 3-3z"/></g></svg>