
<svg version="1.1" id="Layer_1" xmlns="http://www.w3.org/2000/svg" width="110" height="107" x="0" y="0" viewBox="0 0 256 256" style="enable-background:new 0 0 256 256" xml:space="preserve"><style>.st0{fill:#382b73}.st3{fill:#009add}.st6{fill:#fff}</style><switch><g><circle class="st0" cx="128" cy="128" r="120"/><circle cx="128" cy="128" r="102.5" style="fill:#473080"/><path class="st0" d="M174.737 110.942c-.001-.119-.004-.238-.006-.356l-.003-.145c-.559-25.375-21.339-45.764-46.865-45.691-23.264.067-42.127 17.437-45.899 39.584a61.067 61.067 0 0 1-.006-.856 47.003 47.003 0 0 0-.698 8.012c0 .832.013 1.664.039 2.496l.001.042.008.224a313.848 313.848 0 0 1 .018.481l.007.175.014.314.007.163.015.296.01.192.016.284.011.19.02.324.009.148.023.344.009.138.023.31.013.172.025.319.012.158a44.89 44.89 0 0 0 .04.475l.029.325.014.16c.044.479.092.958.145 1.436v.001c.035.319.071.637.109.956l.009.075.049.405.012.094.048.375.019.148.045.338.017.121.048.347.026.181c.014.097.027.194.042.29l.029.198.041.279.029.193.045.291.025.159.05.315.03.183.046.285.032.19.05.298.03.173.049.283.041.231.043.242.04.221.048.264.036.193.053.28.04.209.051.263.038.192.058.293.036.178.059.293.038.184.058.282.044.21.053.248.049.229.055.253.043.199.064.286.042.188.062.273.046.202.062.27.049.21.057.242.055.232.06.25.051.212.063.259.052.212.06.241.06.239a20.931 20.931 0 0 0 .115.45l.072.279.05.194.069.263.054.203.072.27.053.197.077.283.049.18.081.295.047.169.082.291.051.182.081.285.05.174.093.321.041.141.096.327.041.139.087.293.054.181.083.275.056.184.092.302.05.162.098.316.044.143.096.305.051.162.117.368.028.088.089.275.245.752.271.815.038.111c.09.267.181.534.273.8l.064.186.097.28.05.142.109.31.062.176.098.277.075.208.087.243.065.18.106.292.055.152.103.282.083.225.084.228.084.226.082.22.088.233.085.225.074.194.102.268.067.173.106.274.078.202.089.229.083.213.097.246.09.227.078.197.092.232.098.245.074.184.102.253.085.21.089.219.094.229.092.223.088.212a23 23 0 0 0 .097.233l.087.209.096.23.087.208.107.254.074.174a52.59 52.59 0 0 1 .185.433l.127.296.059.137.111.256.1.23.078.179.11.251.089.203.094.214.114.257.078.175.104.233.096.215.098.217.094.208.103.226.101.222.08.175.115.251.094.205.102.22.1.216.098.212.094.201.11.236.074.156.131.279.073.155.119.252.091.191.12.251.082.17.113.234.097.201.116.239.041.085.162.333.054.109.151.308.034.07.46.928.125.25.091.18.12.238.066.13.146.289a29.868 29.868 0 0 1 .204.401l.097.19.126.245.093.181.105.204.127.244.096.184.1.191.109.209.119.226.098.187.104.197.112.212.12.227.086.161.144.27.076.143.111.208.11.205.118.22.091.168.142.263.072.132.128.234.099.181.126.23.085.154.134.243.089.162.124.223.097.176.129.232.085.151.125.224.106.19.114.203.106.188.103.181.125.221.111.195.097.17.122.214.1.176.126.219.095.165.134.233.076.131.151.261.071.122.141.243.088.152.143.245.069.117.147.25.096.163.119.202.111.188.108.182.128.215.093.156.118.198.124.207.069.116.151.252.08.133a78.39 78.39 0 0 1 .226.375l.136.225.097.159.129.211.084.138.151.247.027.044.42.683.024.039.2.322.012.02.209.336.031.049.192.308.01.016a226.69 226.69 0 0 0 1.991 3.127l.128.198.102.157.176.27.033.051.16.244.07.107.121.184.108.164.175.266.027.041.181.273.048.072.134.202.097.146.172.258.029.044.184.275.039.058.179.267.041.061.155.23.079.118.18.266.012.018.168.248.08.118.14.205.065.095.168.246.044.065.176.257.037.054.197.287.005.008.2.29.025.036.184.266.039.056.157.226.071.102.158.226.049.071.154.22.055.079.376.536.054.077.163.231.039.055.165.234.054.076.165.232.028.039.183.257.033.047.154.215.086.121c.256.358.511.712.764 1.062l.013.018.383.528.058.079.359.492.003.004.378.515.088.12.328.444.003.004c.854 1.154 1.682 2.25 2.477 3.287l.002.003.521.677.039.051.139.179.033.042c.534.689 1.051 1.349 1.55 1.978l.003.004a26.536 26.536 0 0 1 .176.223l.474.595.012.015c.266.332.525.655.779.968l.004.004a212.35 212.35 0 0 0 2.242 2.726l.043.05a4.768 4.768 0 0 0 6.586.627l.013-.01a4.835 4.835 0 0 0 .486-.449l.035-.038c.044-.048.087-.096.13-.146l.029-.034c.709-.847 1.505-1.813 2.374-2.89l.165-.205c.481-.597.983-1.227 1.505-1.889l.16-.203.192-.245.158-.202c.318-.407.643-.825.974-1.254l.108-.14c.385-.5.778-1.014 1.179-1.543l.099-.131.33-.437.096-.128a244.382 244.382 0 0 0 2.732-3.702l.071-.098.351-.487.052-.073c.403-.561.811-1.133 1.222-1.715l.071-.1.364-.518.063-.09a555.751 555.751 0 0 0 1.078-1.552c.281-.408.563-.82.846-1.236l.026-.038c.215-.316.43-.635.646-.956l.232-.346a237.579 237.579 0 0 0 3.536-5.434l.09-.143.324-.515c.222-.354.443-.71.665-1.068l.312-.506c.427-.695.855-1.398 1.281-2.109l.222-.371a207.6 207.6 0 0 0 1.84-3.141l.112-.194a214.41 214.41 0 0 0 2.647-4.763l.406-.758.028-.053a188.622 188.622 0 0 0 1.061-2.021l.015-.029c.211-.408.422-.819.631-1.231l.217-.43a175.497 175.497 0 0 0 4.372-9.323 160.978 160.978 0 0 0 1.6-3.836l.286-.718c.145-.366.288-.734.431-1.101l.267-.696c.155-.408.309-.818.461-1.228l.181-.492.29-.799c.133-.37.264-.74.394-1.111l.123-.354.139-.403.181-.531a63.62 63.62 0 0 0 .311-.93 126.195 126.195 0 0 0 1.473-4.762l.077-.269c.154-.539.304-1.079.451-1.62.065-.241.13-.482.193-.724l.182-.699a113.964 113.964 0 0 0 .472-1.904 108.96 108.96 0 0 0 1.312-6.314c.056-.319.111-.639.164-.959l.089-.545a92.044 92.044 0 0 0 .279-1.855 91.027 91.027 0 0 0 .724-7.227 84.638 84.638 0 0 0 .143-4.826c.007-.179.006-.361.004-.544z"/><g><path d="M127.863 57.75c-26.569.076-47.398 22.721-46.563 49.278 1.269 40.341 32.258 80.753 43.042 93.636a4.77 4.77 0 0 0 7.32-.003c11.012-13.157 43.079-55.003 43.079-96.171-.001-25.859-21.001-46.814-46.878-46.74z" style="fill:#1caee4"/><path class="st3" d="M129.362 184.814a1.9 1.9 0 0 1-2.708-.015c-7.59-7.755-44.696-47.747-44.696-88.32a47.012 47.012 0 0 0-.698 8.012c0 41.168 32.067 83.014 43.079 96.171a4.77 4.77 0 0 0 7.322 0c11.012-13.157 43.079-55.003 43.079-96.171 0-2.733-.248-5.407-.698-8.012 0 41.533-37.055 80.712-44.68 88.335zM101.418 82.903l-.057.11-.018.036a4.188 4.188 0 0 0-.055.117l-.007.014a5.906 5.906 0 0 0-.061.14l-.007.018a4.206 4.206 0 0 0-.047.119l-.013.035a4.102 4.102 0 0 0-.043.118l-.008.023-.047.144a.12.12 0 0 0-.005.018l-.036.123-.011.041-.028.111-.009.036c-.012.049-.022.098-.033.148l-.002.009a3.24 3.24 0 0 0-.025.136l-.007.042a29.955 29.955 0 0 0-.023.152c-.007.05-.013.1-.018.151l-.002.018-.011.133-.003.049-.006.111-.002.045a5 5 0 0 0 4.997 5.154h44.333a5 5 0 0 0 4.997-5.154l-.002-.045-.005-.111-.003-.049a5.957 5.957 0 0 0-.011-.133l-.002-.018a3.663 3.663 0 0 0-.018-.151l-.005-.036a2.325 2.325 0 0 0-.018-.116l-.007-.042a5.474 5.474 0 0 0-.025-.136l-.002-.009-.033-.15-.007-.029-.029-.117-.011-.04a2.853 2.853 0 0 0-.036-.123l-.005-.018-.047-.144-.008-.023a4.312 4.312 0 0 0-.044-.121l-.011-.029-.051-.129-.004-.009-.062-.142-.006-.013-.057-.119-.015-.03-.061-.119-.006-.011a5 5 0 0 0-4.407-2.636H105.83a5 5 0 0 0-4.331 2.5v.001l-.075.134c0 .004-.003.01-.006.016z"/><path d="M150.167 87.25h-44.333a5 5 0 0 1 0-10h44.333a5 5 0 0 1 0 10z" style="fill:#fede3a"/><path d="M150.167 82.25h-44.333a5 5 0 0 1-4.331-2.5 5 5 0 0 0 4.331 7.5h44.333a5 5 0 0 0 4.331-7.5 5 5 0 0 1-4.331 2.5z" style="fill:#f7cb15"/><g><path class="st6" d="M132.119 105h-28.238a3 3 0 1 1 0-6h28.238a3 3 0 1 1 0 6zM152.119 117.048h-48.238a3 3 0 1 1 0-6h48.238a3 3 0 1 1 0 6zM152.119 129.048h-48.238a3 3 0 1 1 0-6h48.238a3 3 0 1 1 0 6zM152.119 141.048h-48.238a3 3 0 1 1 0-6h48.238a3 3 0 1 1 0 6z"/></g></g></g></switch></svg>