<svg xmlns="http://www.w3.org/2000/svg" width="110" viewBox="0 0 64 64"><defs><style>.cls-3{fill:#adb2c7}.cls-6{fill:#0096cf}</style></defs><g id="_89-Php_Code" data-name="89-Php Code"><rect x="7" y="13" width="50" height="35" rx="1" ry="1" style="fill:#8dd5f6"/><path d="M61 10v42H40v2a1 1 0 0 1-1 1H25a1 1 0 0 1-1-1v-2H3V10l1-1h56zm-4 37V14a1 1 0 0 0-1-1H8a1 1 0 0 0-1 1v33a1 1 0 0 0 1 1h48a1 1 0 0 0 1-1z" style="fill:#dfe1ea"/><path class="cls-3" d="M63 52v6l-1 1H2l-1-1v-6h23v2a1 1 0 0 0 1 1h14a1 1 0 0 0 1-1v-2h23z"/><path d="M55.8 21c-7.6 0-7.6 2-15.2 2s-7.6-2-15.2-2-7.6 2-15.2 2a31.65 31.65 0 0 1-3.2-.15v7a31.65 31.65 0 0 0 3.2.15c7.6 0 7.6-2 15.2-2s7.6 2 15.2 2 7.6-2 15.2-2c.43 0 .82.01 1.2.022v-7A37.474 37.474 0 0 0 55.8 21z" style="fill:#aedff7"/><path d="M25.394 21c7.6 0 7.6 2 15.2 2s7.6-2 15.2-2c.43 0 .82.01 1.2.022V14a1 1 0 0 0-1-1H8a1 1 0 0 0-1 1v8.85a31.65 31.65 0 0 0 3.2.15c7.594 0 7.594-2 15.194-2z" style="fill:#f6fafd"/><path class="cls-6" d="M40.6 30a31.021 31.021 0 0 1-3.567-.184L35.98 31.19l.71 2.12 2.12.71 3.46-2.64a10.8 10.8 0 0 0 3.15 1.3L46 37l2 1 2-1 .58-4.32a10.8 10.8 0 0 0 3.15-1.3l3.27 2.5v-5.858A37.474 37.474 0 0 0 55.8 28c-7.6 0-7.6 2-15.2 2z"/><path class="cls-6" d="M53.918 21.051A6.066 6.066 0 0 1 54 22a6 6 0 0 1-11.914.969c-.466.019-.956.031-1.491.031a27.628 27.628 0 0 1-8.482-1.227L32 22l1 2 4.32.58a10.8 10.8 0 0 0 1.3 3.15l-1.592 2.086A31.021 31.021 0 0 0 40.6 30c7.6 0 7.6-2 15.2-2 .43 0 .82.01 1.2.022v-7A37.474 37.474 0 0 0 55.8 21c-.694 0-1.3.021-1.882.051z"/><path class="cls-6" d="M37.32 19.42 33 20l-.887 1.773A27.628 27.628 0 0 0 40.6 23c.535 0 1.025-.012 1.491-.031a5.993 5.993 0 1 1 11.832-1.918A35.364 35.364 0 0 1 57 21.022V14a.986.986 0 0 0-.079-.388 1.007 1.007 0 0 0-.533-.533A.982.982 0 0 0 56 13H36.125l2.495 3.27a10.8 10.8 0 0 0-1.3 3.15z"/><path d="m60 19 1 2-1 2-4.32.58a10.8 10.8 0 0 1-1.3 3.15l2.64 3.46-.71 2.12-2.12.71-3.46-2.64a10.8 10.8 0 0 1-3.15 1.3L47 36l-2 1-2-1-.58-4.32a10.8 10.8 0 0 1-3.15-1.3l-3.46 2.64-2.12-.71-.71-2.12 2.64-3.46a10.8 10.8 0 0 1-1.3-3.15L30 23l-1-2 1-2 4.32-.58a10.8 10.8 0 0 1 1.3-3.15l-2.64-3.46.71-2.12 2.12-.71 3.46 2.64a10.8 10.8 0 0 1 3.15-1.3L43 6l2-1 2 1 .58 4.32a10.8 10.8 0 0 1 3.15 1.3l3.46-2.64 2.12.71.71 2.12-2.64 3.46a10.8 10.8 0 0 1 1.3 3.15zm-9 2a6 6 0 1 0-6 6 6 6 0 0 0 6-6z" style="fill:#9196aa"/><path class="cls-3" d="M39 39h5v5h-5z"/><path style="fill:#fff" d="M48 39h5v5h-5z"/><path d="M63 51h-1V26h-2v25H40a1 1 0 0 0-1 1v2H25v-2a1 1 0 0 0-1-1H4V10.414L4.414 10H31V8H4a1 1 0 0 0-.707.293l-1 1A1 1 0 0 0 2 10v41H1a1 1 0 0 0-1 1v6a1 1 0 0 0 .293.707l1 1A1 1 0 0 0 2 60h60a1 1 0 0 0 .707-.293l1-1A1 1 0 0 0 64 58v-6a1 1 0 0 0-1-1zm-1 6.586-.414.414H2.414L2 57.586V53h21v1a2 2 0 0 0 2 2h14a2 2 0 0 0 2-2v-1h21z"/><path d="M6 14v33a2 2 0 0 0 2 2h48a2 2 0 0 0 2-2V36h-2v11H8V14h22v-2H8a2 2 0 0 0-2 2z"/><path d="m34.831 15.875 1.588-1.215-2.319-3.039.382-1.143 1.143-.382 3.039 2.323a1 1 0 0 0 1.13.059 9.911 9.911 0 0 1 2.869-1.19 1 1 0 0 0 .757-.841l.505-3.79L45 6.118l1.079.539.505 3.79a1 1 0 0 0 .757.841 9.911 9.911 0 0 1 2.869 1.19 1 1 0 0 0 1.13-.059l3.039-2.319 1.143.382.382 1.143-2.323 3.035a1 1 0 0 0-.059 1.13 9.911 9.911 0 0 1 1.19 2.869 1 1 0 0 0 .841.757l3.79.5.539 1.084-.539 1.079-3.79.5a1 1 0 0 0-.841.757 9.911 9.911 0 0 1-1.19 2.869 1 1 0 0 0 .059 1.13l2.319 3.044-.382 1.143-1.143.382-3.035-2.323a1 1 0 0 0-1.13-.059 9.911 9.911 0 0 1-2.869 1.19 1 1 0 0 0-.757.841l-.575 4.315 1.982.264.488-3.657a11.867 11.867 0 0 0 2.174-.9l2.932 2.241a1 1 0 0 0 .924.155l2.121-.707a.994.994 0 0 0 .632-.632l.707-2.121a1 1 0 0 0-.155-.924l-2.241-2.932a11.867 11.867 0 0 0 .9-2.174l3.657-.488a1 1 0 0 0 .763-.544l1-2a1 1 0 0 0 0-.894l-1-2a1 1 0 0 0-.763-.544l-3.657-.488a11.867 11.867 0 0 0-.9-2.174l2.241-2.932a1 1 0 0 0 .155-.924l-.707-2.123a.994.994 0 0 0-.632-.632l-2.121-.707a.989.989 0 0 0-.924.155l-2.932 2.241a11.867 11.867 0 0 0-2.174-.9l-.488-3.657a1 1 0 0 0-.544-.763l-2-1a1 1 0 0 0-.894 0l-2 1a1 1 0 0 0-.544.763l-.488 3.657a11.867 11.867 0 0 0-2.174.9l-2.932-2.241a.991.991 0 0 0-.924-.155l-2.121.707a.994.994 0 0 0-.632.632l-.707 2.121a1 1 0 0 0 .155.924z"/><path d="M45 26v2a7 7 0 1 0-7-7h2a5 5 0 1 1 5 5zM53 45a1 1 0 0 0 1-1v-5a1 1 0 0 0-1-1h-5a1 1 0 0 0-1 1v5a1 1 0 0 0 1 1zm-4-5h3v3h-3zM39 38a1 1 0 0 0-1 1v5a1 1 0 0 0 1 1h5a1 1 0 0 0 1-1v-5a1 1 0 0 0-1-1zm4 5h-3v-3h3zM12 23a1 1 0 0 0-1 1v17h2v-7.938a8.057 8.057 0 0 0 5.162-1.6A5.621 5.621 0 0 0 20 27a3.888 3.888 0 0 0-4-4zm6 4a3.671 3.671 0 0 1-1.144 2.95A6.1 6.1 0 0 1 13 31.062V25h3a1.883 1.883 0 0 1 2 2z"/><path d="M34 24v17h2v-7.938a8.078 8.078 0 0 0 5.162-1.6A5.621 5.621 0 0 0 43 27a3.888 3.888 0 0 0-4-4h-4a1 1 0 0 0-1 1zm2 1h3a1.883 1.883 0 0 1 2 2 3.671 3.671 0 0 1-1.144 2.95A6.112 6.112 0 0 1 36 31.062zM32 41V23h-2v8h-6v-8h-2v18h2v-8h6v8h2z"/></g></svg>

