<svg xmlns="http://www.w3.org/2000/svg" width="110" viewBox="0 0 64 64" style="enable-background:new 0 0 64 64" xml:space="preserve"><path d="M57.736 7.668H6.261c-2.9 0-5.261 2.36-5.261 5.26v30.67a5.269 5.269 0 0 0 5.26 5.264h18.496v5.47h-6.922a1 1 0 1 0 0 2h28.35a1 1 0 1 0 0-2h-6.926v-5.47h18.478A5.27 5.27 0 0 0 63 43.598v-30.67c0-2.9-2.361-5.26-5.264-5.26zm-51.475 2h51.475c1.8 0 3.264 1.462 3.264 3.26V39.36H3V12.928a3.265 3.265 0 0 1 3.26-3.26zm30.997 44.665H26.756v-5.471h10.502v5.47zm20.478-7.471H6.261A3.266 3.266 0 0 1 3 43.598V41.36h58v2.238c0 1.8-1.464 3.264-3.264 3.264z"/><path d="M31.518 43.265a1 1 0 0 0-.315 1.379l.01.017c.19.3.509.462.837.462a1.004 1.004 0 0 0 .846-1.544 1 1 0 0 0-1.378-.314zM8.229 28.61h24.646a1 1 0 1 0 0-2H8.229a1 1 0 1 0 0 2zM8.229 22.326h49.846a1 1 0 1 0 0-2H8.228a1 1 0 1 0 0 2zM8.229 16.043h49.846a1 1 0 1 0 0-2H8.228a1 1 0 1 0 0 2zM8.229 34.89h24.646a1 1 0 1 0 0-2H8.229a1 1 0 1 0 0 2zM41.543 27.37c.834 0 1.633.305 2.251.858a1 1 0 0 0 1.334-1.49 5.366 5.366 0 0 0-3.585-1.367 5.383 5.383 0 0 0-5.377 5.377 5.385 5.385 0 0 0 5.377 5.38 5.369 5.369 0 0 0 3.585-1.37 1 1 0 0 0-1.334-1.49 3.37 3.37 0 0 1-2.251.86 3.382 3.382 0 0 1-3.377-3.38 3.38 3.38 0 0 1 3.377-3.377zM50.734 29.748h-.824V28.7a1 1 0 1 0-2 0v1.047h-.824a1 1 0 1 0 0 2h.824v1.046a1 1 0 1 0 2 0v-1.046h.824a1 1 0 1 0 0-2zM57.74 29.748h-.825V28.7a1 1 0 1 0-2 0v1.047h-.823a1 1 0 1 0 0 2h.823v1.046a1 1 0 1 0 2 0v-1.046h.824a1 1 0 1 0 0-2z"/></svg>

